<?xml version="1.0" standalone="no"?>
<!DOCTYPE svg PUBLIC "-//W3C//DTD SVG 20010904//EN"
 "http://www.w3.org/TR/2001/REC-SVG-20010904/DTD/svg10.dtd">
<svg version="1.0" xmlns="http://www.w3.org/2000/svg"
 width="300.000000pt" height="300.000000pt" viewBox="0 0 300.000000 300.000000"
 preserveAspectRatio="xMidYMid meet">
<metadata>
Created by potrace 1.14, written by Peter Selinger 2001-2017
</metadata>
<g transform="translate(0.000000,300.000000) scale(0.100000,-0.100000)"
fill="#000000" stroke="none">
<path d="M1340 2905 c-8 -2 -49 -9 -90 -15 -172 -28 -385 -115 -551 -226 -110
-73 -293 -259 -372 -380 -160 -242 -237 -499 -237 -789 0 -393 155 -748 447
-1025 186 -177 411 -294 683 -355 113 -26 374 -31 493 -11 326 56 589 193 809
424 251 265 388 605 388 967 0 292 -78 550 -241 796 -75 114 -261 303 -368
373 -250 166 -518 247 -805 245 -78 -1 -148 -3 -156 -4z m90 -190 l0 -54 -47
-6 c-200 -28 -393 -111 -513 -222 -113 -105 -186 -219 -229 -358 -22 -71 -40
-225 -26 -225 4 0 38 20 76 45 95 64 143 78 238 73 86 -5 160 -34 242 -93 l48
-36 53 43 c85 70 146 91 243 86 90 -5 141 -26 217 -89 l47 -39 76 49 c103 67
158 85 254 79 88 -5 149 -29 228 -89 l53 -40 0 45 c0 65 -25 186 -53 256 -108
266 -350 450 -666 505 -46 8 -88 15 -92 15 -5 0 -9 25 -9 56 l0 57 83 -6 c427
-34 852 -356 1027 -778 158 -380 120 -819 -101 -1175 -87 -138 -254 -304 -402
-399 -27 -17 -26 -13 19 55 61 95 111 219 126 313 l12 76 49 -6 c85 -10 85 30
0 107 -48 44 -56 58 -74 122 -11 40 -32 95 -47 122 -37 68 -125 162 -195 207
-55 36 -182 84 -237 91 -19 2 -24 8 -22 23 2 11 4 54 5 95 1 58 -4 86 -21 125
-29 63 -92 129 -157 163 -42 22 -63 26 -135 26 -100 1 -159 -22 -225 -89 -66
-65 -90 -125 -90 -222 l0 -82 -22 15 c-12 7 -30 14 -39 14 -15 0 -16 -9 -11
-78 l6 -78 -52 -26 c-29 -14 -90 -54 -137 -89 -128 -94 -140 -100 -236 -109
-125 -11 -128 -15 -132 -185 l-4 -134 34 -35 c37 -39 309 -235 405 -292 75
-44 103 -94 111 -197 l5 -68 -44 17 c-333 125 -605 380 -741 695 -157 366
-136 789 57 1135 93 166 271 354 429 453 107 66 242 125 361 157 87 23 231 44
248 37 4 -3 7 -28 7 -58z m149 -969 c18 -10 40 -31 49 -47 10 -16 25 -29 35
-29 9 0 17 -5 17 -11 0 -7 -8 -18 -17 -25 -17 -13 -17 -15 0 -28 19 -15 23
-36 5 -36 -6 0 -27 -17 -47 -39 -42 -45 -88 -61 -178 -61 l-63 0 0 50 c0 43
-3 50 -20 50 -11 0 -20 7 -20 15 0 8 9 15 20 15 13 0 20 7 20 20 0 13 -7 20
-20 20 -11 0 -20 7 -20 15 0 8 9 15 20 15 17 0 20 7 20 51 l0 52 83 -5 c49 -3
97 -12 116 -22z m-86 -1387 c37 -6 128 -9 202 -7 l135 3 2 -27 c1 -16 2 -36 2
-45 2 -47 -354 -78 -530 -47 l-31 6 46 69 c43 66 48 70 76 64 17 -3 60 -10 98
-16z"/>
<path d="M1410 1705 l0 -35 101 0 c111 0 119 7 59 48 -26 17 -47 22 -96 22
l-64 0 0 -35z"/>
<path d="M1410 1620 c0 -19 7 -20 105 -20 98 0 105 1 105 20 0 19 -7 20 -105
20 -98 0 -105 -1 -105 -20z"/>
<path d="M1410 1535 l0 -35 64 0 c49 0 70 5 96 23 60 40 52 47 -59 47 l-101 0
0 -35z"/>
</g>
</svg>
